<svg width="80" height="80" viewBox="0 0 80 80" fill="none" xmlns="http://www.w3.org/2000/svg">
<path d="M50.2433 6.66669H29.79C11.11 6.66669 6.66663 11.11 6.66663 29.7567V50.21C6.66663 68.8867 11.0766 73.3334 29.7566 73.3334H50.21C68.8866 73.3334 73.3333 68.9234 73.3333 50.2434V29.79C73.3333 11.11 68.9233 6.66669 50.2433 6.66669ZM60.4866 54.2334H55.6233C53.7833 54.2334 53.23 52.7434 49.93 49.4434C47.05 46.6667 45.8333 46.32 45.1033 46.32C44.0966 46.32 43.82 46.5967 43.82 47.9867V52.36C43.82 53.5434 43.4366 54.2367 40.3466 54.2367C37.3478 54.0352 34.4397 53.1241 31.862 51.5785C29.2842 50.0328 27.1105 47.8969 25.52 45.3467C21.7439 40.6467 19.1164 35.1305 17.8466 29.2367C17.8466 28.5067 18.1233 27.8467 19.5133 27.8467H24.3733C25.6233 27.8467 26.0733 28.4034 26.5633 29.6867C28.9233 36.6334 32.95 42.6734 34.5833 42.6734C35.21 42.6734 35.4833 42.3967 35.4833 40.8334V33.68C35.2766 30.4167 33.5433 30.14 33.5433 28.96C33.5656 28.6488 33.7082 28.3585 33.9409 28.1506C34.1737 27.9428 34.4782 27.8338 34.79 27.8467H42.43C43.4733 27.8467 43.82 28.3667 43.82 29.6167V39.27C43.82 40.3134 44.27 40.66 44.5833 40.66C45.21 40.66 45.6933 40.3134 46.84 39.1667C49.3028 36.1632 51.3151 32.8169 52.8133 29.2334C52.9664 28.8029 53.2562 28.4344 53.6384 28.184C54.0206 27.9336 54.4742 27.8152 54.93 27.8467H59.7933C61.25 27.8467 61.56 28.5767 61.25 29.6167C59.4816 33.5781 57.2935 37.3385 54.7233 40.8334C54.2 41.6334 53.99 42.05 54.7233 42.9867C55.2066 43.7167 56.91 45.14 58.0566 46.4934C59.723 48.1555 61.1067 50.0786 62.1533 52.1867C62.57 53.54 61.8733 54.2367 60.4866 54.2367V54.2334Z" fill="black"/>
</svg>
