<svg width="80" height="80" viewBox="0 0 80 80" fill="none" xmlns="http://www.w3.org/2000/svg">
<g clip-path="url(#clip0_3_24)">
<path d="M66.6674 13.3333C68.4355 13.3333 70.1312 14.0357 71.3814 15.2859C72.6317 16.5362 73.334 18.2319 73.334 20V60C73.334 61.7681 72.6317 63.4638 71.3814 64.714C70.1312 65.9643 68.4355 66.6666 66.6674 66.6666H13.334C11.5659 66.6666 9.87023 65.9643 8.61999 64.714C7.36975 63.4638 6.66737 61.7681 6.66737 60V56.6666H13.334V60H66.6674V24.7433L43.5507 47.86C42.6131 48.7973 41.3415 49.3239 40.0157 49.3239C38.6899 49.3239 37.4183 48.7973 36.4807 47.86L13.334 24.7133V26.6666H6.66737V20C6.66737 18.2319 7.36975 16.5362 8.61999 15.2859C9.87023 14.0357 11.5659 13.3333 13.334 13.3333H66.6674ZM20.0007 43.3333C20.8503 43.3343 21.6675 43.6596 22.2853 44.2428C22.9031 44.826 23.2748 45.6232 23.3246 46.4713C23.3744 47.3194 23.0985 48.1546 22.5532 48.8061C22.0079 49.4576 21.2344 49.8763 20.3907 49.9766L20.0007 50H3.33403C2.48444 49.999 1.66726 49.6737 1.04947 49.0905C0.431687 48.5073 0.0599184 47.7101 0.010128 46.862C-0.0396624 46.0139 0.236283 45.1787 0.781584 44.5272C1.32689 43.8757 2.10038 43.457 2.94403 43.3566L3.33403 43.3333H20.0007ZM16.6674 33.3333C17.5514 33.3333 18.3993 33.6845 19.0244 34.3096C19.6495 34.9347 20.0007 35.7826 20.0007 36.6666C20.0007 37.5507 19.6495 38.3985 19.0244 39.0237C18.3993 39.6488 17.5514 40 16.6674 40H6.66737C5.78331 40 4.93547 39.6488 4.31035 39.0237C3.68522 38.3985 3.33403 37.5507 3.33403 36.6666C3.33403 35.7826 3.68522 34.9347 4.31035 34.3096C4.93547 33.6845 5.78331 33.3333 6.66737 33.3333H16.6674Z" fill="black"/>
</g>
<defs>
<clipPath id="clip0_3_24">
<rect width="80" height="80" fill="white"/>
</clipPath>
</defs>
</svg>
