<svg width="80" height="80" viewBox="0 0 80 80" fill="none" xmlns="http://www.w3.org/2000/svg">
<path d="M40 6.66669C21.6 6.66669 6.66669 21.6 6.66669 40C6.66669 58.4 21.6 73.3334 40 73.3334C58.4 73.3334 73.3334 58.4 73.3334 40C73.3334 21.6 58.4 6.66669 40 6.66669ZM55.4667 29.3334C54.9667 34.6 52.8 47.4 51.7 53.3C51.2334 55.8 50.3 56.6334 49.4334 56.7334C47.5 56.9 46.0334 55.4667 44.1667 54.2334C41.2334 52.3 39.5667 51.1 36.7334 49.2334C33.4334 47.0667 35.5667 45.8667 37.4667 43.9334C37.9667 43.4334 46.5 35.6667 46.6667 34.9667C46.6898 34.8607 46.6868 34.7506 46.6577 34.646C46.6287 34.5415 46.5745 34.4456 46.5 34.3667C46.3 34.2 46.0334 34.2667 45.8 34.3C45.5 34.3667 40.8334 37.4667 31.7334 43.6C30.4 44.5 29.2 44.9667 28.1334 44.9334C26.9334 44.9 24.6667 44.2667 22.9667 43.7C20.8667 43.0334 19.2334 42.6667 19.3667 41.5C19.4334 40.9 20.2667 40.3 21.8334 39.6667C31.5667 35.4334 38.0334 32.6334 41.2667 31.3C50.5334 27.4334 52.4334 26.7667 53.7 26.7667C53.9667 26.7667 54.6 26.8334 55 27.1667C55.3334 27.4334 55.4334 27.8 55.4667 28.0667C55.4334 28.2667 55.5 28.8667 55.4667 29.3334V29.3334Z" fill="black"/>
</svg>
